<?xml version="1.0" encoding="utf-8"?>
<!-- Generator: Adobe Illustrator 23.0.4, SVG Export Plug-In . SVG Version: 6.00 Build 0)  -->
<svg version="1.1" id="Layer_1" xmlns="http://www.w3.org/2000/svg" xmlns:xlink="http://www.w3.org/1999/xlink" x="0px" y="0px"
	 viewBox="0 0 1305 337" style="enable-background:new 0 0 1305 337;" xml:space="preserve">
<style type="text/css">
	.st0{fill:#231F20;}
	.st1{fill:#FFFFFF;}
</style>
<title>Artboard</title>
<desc>Created with Sketch.</desc>
<path class="st0" d="M179.3,106.9L179.3,106.9c-4.2-3.8-10.6-8.8-19.2-13c-4.2-2.1-46.1-21.9-84.9,2.2
	c-30.6,18.9-37.2,51.3-38.2,56.4c-1,5.5-7.1,41.2,17.7,69.9c19.8,22.9,46.4,26.4,54.8,27.4c8.4,1,31.4,3.3,53.2-10.8
	c9.1-5.9,15.2-12.8,18.8-17.7c-7-7.9-14-15.8-21-23.7c-2.6,3-6.9,7.1-12.9,10.8c-4.2,2.5-17.2,10.1-34.4,7.5
	c-3.4-0.5-15-2.4-25.3-11.8c-18.1-16.6-15.3-41.1-15.1-43c0.3-2.2,4-27.5,26.3-38.2c19-9,43.3-3.6,59.1,14
	c6.3-7.7,12.9-15.4,19.9-23.1c1.1-1.2,2.2-2.5,3.3-3.7"/>
<path class="st0" d="M301.8,149.6L301.8,149.6L301.8,149.6L301.8,149.6c-11.9-20-23.8-39.9-35.7-59.9c-14-0.6-28-1.3-42.1-1.9
	c20.4,32.1,40.8,64.2,61.2,96.2c0,21,0,41.9,0,62.9c11.9-0.1,23.8-0.2,35.7-0.3c0-21,0-42,0-63c20.2-31.8,40.4-63.6,60.5-95.4
	c-13.2,0-26.5,0-39.7,0c-12.3,20.9-24.7,41.8-37,62.7c-0.5,0-1.1,0-1.6,0c-0.3-0.2-0.5-0.5-0.8-0.7"/>
<path class="st0" d="M542.1,161.8"/>
<path class="st0" d="M589.5,89c7.7,10.7,15.4,21.4,23.1,32.1c22.9,0,45.9,0,68.8,0c1.7,0.3,4.1,0.9,6.7,2.4
	c6.5,3.6,9.1,9.5,9.9,11.4c0.7,1.8,3.6,9.1,0,17.1c-3.6,7.8-10.8,10.5-12.2,11c-0.9,0.3-1.7,0.6-2.6,0.9c-13.7,0.1-27.3,0.2-41,0.3
	c19,27.8,38,55.7,57,83.5c14.1,0,28.1-0.1,42.2-0.1c-12.9-18.9-25.8-37.9-38.8-56.8c0.4-0.1,0.9-0.3,1.5-0.5
	c12.3-4.1,19.3-13.5,21.7-16.6c1.3-1.8,5-7.1,7.5-14.9c3.2-10.1,2.6-18.6,2.2-23.4c-0.3-3.8-0.6-7.8-2.2-12.6
	c-0.8-2.4-5-14.7-17.2-23.3c-6.2-4.4-12.3-6.2-18.5-8.1c-4.5-1.3-8.3-2.1-11.1-2.6"/>
<path class="st0" d="M942.7,88.7c7.7,10.7,15.4,21.4,23.1,32.1c22.9,0,45.9,0,68.8,0c1.7,0.3,4.1,0.9,6.7,2.4
	c6.5,3.6,9.1,9.5,9.9,11.4c0.7,1.8,3.6,9.1,0,17.1c-3.6,7.8-10.8,10.5-12.2,11c-0.9,0.3-1.7,0.6-2.6,0.9c-13.7,0.1-27.3,0.2-41,0.3
	c19,27.8,38,55.7,57,83.5c14.1,0,28.1-0.1,42.2-0.1c-12.9-18.9-25.8-37.9-38.8-56.8c0.4-0.1,0.9-0.3,1.5-0.5
	c12.3-4.1,19.3-13.5,21.7-16.6c1.3-1.8,5-7.1,7.5-14.9c3.2-10.1,2.6-18.6,2.2-23.4c-0.3-3.8-0.6-7.8-2.2-12.6
	c-0.8-2.4-5-14.7-17.2-23.3c-6.2-4.4-12.3-6.2-18.5-8.1c-4.5-1.3-8.3-2.1-11.1-2.6"/>
<path class="st0" d="M1197.5,150.3L1197.5,150.3L1197.5,150.3L1197.5,150.3c-11.9-20-23.8-39.9-35.7-59.9c-14-0.6-28-1.3-42.1-1.9
	c20.4,32.1,40.8,64.2,61.2,96.2c0,21,0,41.9,0,62.9c11.9-0.1,23.8-0.2,35.7-0.3c0-21,0-42,0-63c20.2-31.8,40.4-63.6,60.5-95.4
	c-13.2,0-26.5,0-39.7,0c-12.3,20.9-24.7,41.8-37,62.7c-0.5,0-1.1,0-1.6,0c-0.3-0.2-0.5-0.5-0.8-0.7"/>
<path class="st0" d="M878.5,88.4c-10.8,0-21.6,0.1-32.5,0.1c-22.4,53.1-44.8,106.1-67.1,159.2c11.8-0.1,23.6-0.2,35.4-0.3
	c5.2-11.8,10.3-23.7,15.5-35.5c21.5-0.1,42.9-0.2,64.4-0.2c5.4,12,10.8,24,16.2,36c12.2,0,24.4-0.1,36.7-0.1
	C924.2,194.5,901.3,141.5,878.5,88.4z M842.5,179.3c6.6-16.3,13.2-32.7,19.8-49c7.1,16.2,14.2,32.5,21.2,48.7
	C869.9,179.1,856.2,179.2,842.5,179.3z"/>
<path class="st1" d="M872.2,562.5"/>
<path class="st0" d="M568.9,203.1c-0.1-4.7-0.2-10.8-3.5-17.4c-4.8-9.5-13.2-14.4-18.6-17.5c-2.7-1.6-5.1-2.7-6.8-3.4
	c0.8-0.4,2-1.1,3.3-2c2.1-1.4,8.1-5.4,12.2-12.4c4.1-7.1,4.4-13.9,4.5-17.8c0.1-4,0.3-16.1-8.3-27.2C541.3,92.1,526,90.3,523.2,90
	c-30-0.3-59.9-0.5-89.9-0.8c0.1,52.8,0.3,105.6,0.4,158.4l1.6,0.1c30.5-0.3,61-0.5,91.4-0.8c8-1.1,14.2-3.5,18.1-5.5
	c3.4-1.7,7.9-4,12.6-8.7c5.3-5.3,7.7-10.6,8.3-11.8C569,213.6,569,207.2,568.9,203.1z M467.2,116.5l45.3,0.4c0.3,0,0.7,0,1.1,0.1
	c5.6,0.9,11.7,7.8,11.7,15.6c0,9.3-8.4,14.5-9.5,15.1c-0.7,0.4-1.3,0.7-1.8,0.9c-15.5,0.2-31,0.4-46.4,0.6
	C467.4,138.3,467.3,127.4,467.2,116.5z M521.6,214.3c-0.8,0.4-1.5,0.7-2,0.9c-17.1,0.2-34.3,0.4-51.4,0.6c-0.1-11-0.2-22.1-0.4-33.1
	l50.4-0.2c0.3,0,0.7,0,1.2,0.1c6,1,12.8,7.9,12.7,16.4C531.9,208.7,522.7,213.8,521.6,214.3z"/>
</svg>
