<svg width="201" height="42" viewBox="0 0 201 42" fill="none" xmlns="http://www.w3.org/2000/svg">
<path d="M65.0622 8.16261H55.8198L50.2933 31.8247H56.8043L58.8688 23.0268H62.2037C70.144 23.0268 71.6368 17.6274 72.1132 15.563C73.9554 7.71795 68.4607 8.16261 65.0622 8.16261ZM65.6022 15.69C65.094 17.8498 62.9343 18.2944 62.0767 18.2944H59.9805L61.2509 12.895H63.6648C64.4588 12.895 66.1104 13.562 65.6022 15.69ZM83.7696 8.16261H77.2903L71.7956 31.8247H88.4067L89.7089 26.2347H79.5453L83.7696 8.16261ZM110.735 21.5023L111.846 16.7699H101.556L102.445 12.9585H113.434L114.546 8.16261H97.0775L91.5511 31.8247H109.02L110.354 26.2347H99.3325L100.444 21.5023H110.735ZM138.748 8.16261H131.824L126.361 15.4359L124.011 8.16261H117.087L121.121 19.3425L110.989 31.8247H118.167L124.233 23.7256L126.806 31.8247H134.016L129.569 19.4378L138.748 8.16261ZM139.701 14.6419C138.843 18.3262 141.416 20.1048 144.052 21.1212C147.07 22.1693 149.833 22.5187 149.293 24.869C147.895 28.6486 142.305 27.9816 142.877 23.3762L136.715 23.6938C134.143 34.7785 153.358 35.3819 155.931 24.329C158.249 14.4196 145.069 17.3416 145.926 13.7208C146.72 10.6082 151.929 11.2434 151.516 14.6419L157.583 14.229C159.647 5.39939 142.02 4.79592 139.701 14.6419ZM177.052 8.16261L170.7 16.357L168.318 8.16261H161.076L166.031 22.1693L163.712 31.8247H170.223L172.478 22.1693L184.04 8.16261H177.052ZM200.809 14.2607C202.874 5.39939 185.246 4.79593 182.928 14.6736C182.07 18.3579 184.643 20.1366 187.279 21.1529C190.296 22.201 193.06 22.5504 192.52 24.9007C191.122 28.6803 185.532 28.0133 186.104 23.408L179.942 23.7256C177.37 34.8102 196.585 35.4137 199.158 24.3608C201.476 14.4513 188.296 17.3733 189.153 13.7526C189.947 10.64 195.156 11.2752 194.743 14.6736L200.809 14.2607ZM33.7457 19.1837L32.2212 19.7554C32.1577 19.5331 31.9989 19.1837 31.8401 18.7391C45.9103 14.2925 54.5811 9.05192 54.1364 8.63902C53.9458 8.54374 43.7823 14.1972 32.8882 16.7699C32.3165 16.9287 31.7766 17.0875 31.2049 17.2145C31.0778 16.8969 30.9508 16.6111 30.8555 16.4205C28.8545 12.1645 26.8536 8.51198 24.9797 5.74876C26.3772 5.3041 27.6476 4.89121 27.6158 4.79592C27.5841 4.70064 26.0913 5.08177 24.7573 5.43115C22.0576 1.49276 19.7708 -0.53995 18.5322 0.127035C17.484 0.698735 17.3252 2.92202 17.8969 6.22518C17.4523 6.51103 17.2299 7.11449 17.1664 7.97204C6.717 11.9422 0.205966 16.5158 1.06352 19.6284C1.34937 20.5812 2.33396 21.3117 3.92202 21.7564C3.31856 22.7727 3.15975 23.7256 3.47737 24.5831C4.55724 27.4416 12.2752 27.3146 22.28 24.6466C22.6611 25.4724 23.074 26.33 23.5187 27.1875C28.6004 36.7476 33.3329 42.0518 33.5234 41.6706C33.5552 41.5436 28.4734 35.3502 25.1385 28.0451C24.5033 26.8064 23.9316 25.5677 23.3598 24.3608C23.4869 24.329 23.6457 24.2655 23.7727 24.2338C28.9498 35.4137 33.9681 41.9247 34.1904 41.5118C34.2222 41.353 28.8228 33.8574 25.4561 25.3454C25.2655 24.869 25.0432 24.3926 24.8526 23.9161C26.6312 23.3762 28.4734 22.7727 30.3473 22.1058C30.6967 22.7092 30.9508 23.1856 30.9825 23.1221C31.0143 23.0904 30.792 22.6139 30.5379 22.0105C31.1096 21.7881 31.713 21.5976 32.2847 21.3752C45.7832 15.817 49.9122 12.228 49.4358 11.8469C49.277 11.8469 43.9728 15.7853 33.7457 19.1837ZM30.919 17.3098C30.0615 17.5321 29.2357 17.7545 28.3781 17.945C26.7901 15.1501 25.2338 12.7362 23.7727 10.8305C24.8844 10.3859 25.7419 9.97299 25.6784 9.87771C25.6467 9.81419 24.5985 10.1636 23.5504 10.5447C22.4705 9.11544 21.4542 8.0038 20.5649 7.24153C21.74 6.82864 22.947 6.41574 24.2174 6.00285C24.3444 5.97109 24.4715 5.93933 24.5668 5.8758C26.536 8.70255 28.7275 12.6727 30.919 17.3098ZM18.8815 12.8633C19.0721 12.768 19.2627 12.7045 19.4532 12.6092C20.0884 14.7054 20.8825 16.9922 21.8036 19.3743L21.2319 19.4696C20.2155 16.9922 19.4215 14.7372 18.8815 12.8633ZM20.1202 19.6919C14.0221 20.74 8.97204 21.0259 5.82769 20.5177C7.73336 18.4532 11.8623 15.9759 17.8969 13.3079C18.4369 15.1501 19.1991 17.3416 20.1202 19.6919ZM18.1828 8.13085C18.2145 8.13085 18.2145 8.13085 18.2463 8.09908C18.5322 9.36953 18.8815 10.7353 19.3262 12.1963C19.1356 12.2598 18.945 12.3551 18.7545 12.4186C18.2463 10.5447 18.0557 9.05192 18.1828 8.13085ZM19.1991 7.20977V7.17801C19.2309 7.17801 19.2627 7.17801 19.2627 7.20977H19.1991ZM19.9296 7.49562C20.7554 8.0038 21.8671 9.11544 23.1375 10.7035C22.5023 10.9576 21.8671 11.1799 21.5177 11.3387C21.1366 11.4975 20.7554 11.6563 20.4061 11.7834C19.9614 10.2906 19.612 8.95664 19.3262 7.71795C19.5168 7.62267 19.7391 7.55914 19.9296 7.49562ZM20.5013 12.1645C21.1683 11.8787 21.8671 11.5928 22.5976 11.307C22.8517 11.2117 23.1058 11.0846 23.3598 10.9893C24.7573 12.7997 26.3772 15.1818 28.0287 18.0086C26.2819 18.4215 24.5668 18.8026 22.9152 19.1202C21.9941 16.6428 21.1683 14.2925 20.5013 12.1645ZM19.4215 1.33396C20.4061 0.762258 22.1847 2.41384 24.3762 5.52643C23.868 5.65348 23.4234 5.81228 23.1375 5.90756C22.1212 6.22518 21.1366 6.54279 20.1837 6.89216C19.7708 6.57455 19.3579 6.32046 19.0403 6.19342C18.5639 3.52548 18.6592 1.77861 19.4215 1.33396ZM2.52453 18.6438C1.82578 16.1982 7.8604 12.228 17.1347 8.54374C17.1347 9.68714 17.3888 11.1482 17.8334 12.8315C11.6082 15.563 7.32047 18.0721 5.09718 20.3271C3.63617 20.0095 2.74686 19.4378 2.52453 18.6438ZM4.77957 23.535C4.58901 23.0586 4.62077 22.5504 4.81133 22.0105C8.33682 22.741 14.0538 22.5186 20.7872 21.3435C21.0095 21.8834 21.2636 22.4234 21.4859 22.9633C12.3387 25.1548 5.47832 25.2183 4.77957 23.535ZM22.5976 22.7092C22.3753 22.1693 22.1212 21.6611 21.8988 21.1212C22.0576 21.0894 22.2482 21.0576 22.4388 21.0259C22.6611 21.5341 22.8517 22.074 23.074 22.5822C22.9152 22.6139 22.7564 22.6775 22.5976 22.7092ZM23.5822 20.8035C25.329 20.4542 27.1077 20.0413 28.9181 19.5649C29.1404 19.946 29.3309 20.2954 29.5533 20.6765C27.7111 21.28 25.9325 21.8199 24.1856 22.2963C23.9951 21.7881 23.7727 21.28 23.5822 20.8035ZM29.6168 20.2001C29.4898 19.946 29.3627 19.7237 29.2357 19.5013C29.8709 19.3425 30.5379 19.152 31.2049 18.9614C31.3637 18.9296 31.4907 18.8661 31.6495 18.8344C31.8401 19.279 32.0306 19.6284 32.1577 19.819C31.3954 20.1048 30.6014 20.3589 29.8391 20.613C29.7438 20.4224 29.6803 20.2954 29.6168 20.2001Z" fill="white"/>
</svg>
