<svg width="200" height="62" viewBox="0 0 200 62" fill="none" xmlns="http://www.w3.org/2000/svg">
<path d="M87.2333 9.16667H98.6667C101.567 9.16667 103.867 10.0333 105.333 11.5667C106.467 12.7667 107.033 14.2333 107.033 16.0667V16.1333C107.033 19.4 105.3 21.1333 103.4 22.1667C106.367 23.2667 108.467 25.0667 108.467 28.7667V28.8333C108.467 33.6667 104.733 36.2667 99.0333 36.2667H87.2333V9.16667ZM102.567 16.8333C102.567 14.7 100.967 13.3667 98.1 13.3667H91.6333V20.5667H97.7333C100.6 20.5667 102.533 19.3667 102.533 16.9V16.8333H102.567ZM98.7333 24.6333H91.6333V32.0667H99.0667C102.133 32.0667 103.967 30.8 103.967 28.3333V28.2667C103.967 25.9667 102.267 24.6333 98.7333 24.6333Z" fill="white"/>
<path d="M110.6 26.1333V26.0667C110.6 20.2 115.267 15.3333 121.567 15.3333C127.867 15.3333 132.5 20.1333 132.5 26V26.0667C132.5 31.9 127.833 36.7667 121.5 36.7667C115.2 36.7667 110.6 31.9667 110.6 26.1333ZM127.8 26.1333V26.0667C127.8 22.4333 125.2 19.4667 121.5 19.4667C117.733 19.4667 115.3 22.4333 115.3 26V26.0667C115.3 29.6333 117.9 32.6333 121.567 32.6333C125.367 32.6333 127.8 29.6667 127.8 26.1333Z" fill="white"/>
<path d="M135.067 15.7333H139.9V18.9C141.267 17 143.233 15.3333 146.5 15.3333C151.267 15.3333 154.033 18.4333 154.033 23.2V36.3H149.167V24.6333C149.167 21.4333 147.533 19.6 144.633 19.6C141.833 19.6 139.867 21.5 139.867 24.7V36.3H135.033V15.7333H135.067Z" fill="white"/>
<path d="M62.7 56.7333L65.5333 53.2C68.1 55.5333 70.6667 56.8333 73.9667 56.8333C76.8667 56.8333 78.7 55.4 78.7 53.3V53.2333C78.7 51.2333 77.6333 50.1333 72.6667 48.9333C67 47.5 63.8 45.7333 63.8 40.5667V40.4667C63.8 35.6667 67.6 32.3333 72.9 32.3333C76.8 32.3333 79.8667 33.5667 82.5667 35.8667L80.0667 39.6C77.6667 37.7 75.2667 36.7 72.8333 36.7C70.1 36.7 68.5 38.2 68.5 40.0333V40.1C68.5 42.2667 69.7333 43.2333 74.8667 44.5C80.5 45.9333 83.4 48.0667 83.4 52.7333V52.8C83.4 58.0667 79.4667 61.1667 73.8667 61.1667C69.7667 61.2 65.9 59.7333 62.7 56.7333Z" fill="white"/>
<path d="M85.3333 50.3V50.2333C85.3333 44.3667 89.4667 39.5333 95.2667 39.5333C101.733 39.5333 105 44.6667 105 50.6C105 51.0333 104.967 51.4667 104.933 51.9333H90C90.5 55.2667 92.8667 57.1667 95.8667 57.1667C98.1333 57.1667 99.7667 56.3 101.367 54.7L104.1 57.1667C102.167 59.5 99.5 61.0333 95.7667 61.0333C89.9 60.9667 85.3333 56.6333 85.3333 50.3ZM100.4 48.7667C100.1 45.7333 98.3333 43.3667 95.2333 43.3667C92.4 43.3667 90.3667 45.6 89.9667 48.7667H100.4Z" fill="white"/>
<path d="M107.1 50.3333V50.2667C107.1 44.4333 111.567 39.5333 117.7 39.5333C121.5 39.5333 123.9 40.9667 125.833 43.0667L122.9 46.2333C121.467 44.7 119.967 43.6667 117.667 43.6667C114.267 43.6667 111.767 46.6333 111.767 50.2V50.2667C111.767 53.9333 114.267 56.8333 117.867 56.8333C120.067 56.8333 121.667 55.8333 123.133 54.3L125.933 57.1C123.933 59.3667 121.567 60.9667 117.6 60.9667C111.567 60.9667 107.1 56.1667 107.1 50.3333Z" fill="white"/>
<path d="M126.033 50.3333V50.2667C126.033 44.4 130.6 39.5333 136.8 39.5333C142.967 39.5333 147.533 44.3333 147.533 50.2V50.2667C147.533 56.1 142.967 60.9667 136.733 60.9667C130.6 60.9667 126.033 56.1667 126.033 50.3333ZM142.9 50.3333V50.2667C142.9 46.6333 140.333 43.6667 136.733 43.6667C133.033 43.6667 130.667 46.6333 130.667 50.2V50.2667C130.667 53.8333 133.233 56.8333 136.8 56.8333C140.533 56.8333 142.9 53.8667 142.9 50.3333Z" fill="white"/>
<path d="M149.767 53V39.9333H154.433V51.6C154.433 54.8 156 56.6 158.8 56.6C161.5 56.6 163.367 54.7333 163.367 51.5333V39.9333H168.067V60.4667H163.367V57.2667C162.067 59.2 160.167 60.9 157 60.9C152.433 60.9 149.767 57.8 149.767 53Z" fill="white"/>
<path d="M171.6 39.9333H176.3V44.5667C177.567 41.5 179.967 39.4 183.567 39.5333V44.5H183.3C179.167 44.5 176.3 47.2 176.3 52.6333V60.4667H171.6V39.9333Z" fill="white"/>
<path d="M183.667 57.8L185.767 54.6C188.033 56.2667 190.4 57.1333 192.5 57.1333C194.533 57.1333 195.7 56.2667 195.7 54.9V54.8333C195.7 53.2333 193.533 52.7 191.1 51.9667C188.067 51.1 184.667 49.8667 184.667 45.9333V45.8667C184.667 41.9667 187.9 39.6 191.967 39.6C194.533 39.6 197.333 40.5 199.533 41.9333L197.667 45.2667C195.667 44.0667 193.567 43.3333 191.867 43.3333C190.033 43.3333 189 44.2 189 45.3667V45.4333C189 46.9667 191.2 47.5667 193.633 48.3667C196.633 49.3 200 50.6667 200 54.3667V54.4333C200 58.7667 196.667 60.9 192.367 60.9C189.467 60.8667 186.233 59.8333 183.667 57.8Z" fill="white"/>
<path d="M45.2 57.8667C45.3 57.8667 45.4 57.8667 45.4667 57.8667C45.5667 57.8667 45.6333 57.8333 45.7 57.8C45.7667 57.7667 45.8333 57.7333 45.8667 57.6667C45.9 57.6 45.9333 57.5333 45.9333 57.4C45.9333 57.3 45.9333 57.2333 45.8667 57.1667C45.8333 57.1 45.8 57.0667 45.7333 57.0333C45.6667 57 45.6 57 45.5333 56.9667C45.4667 56.9667 45.4 56.9667 45.3 56.9667H44.7333V57.8667H45.2ZM45.4 56.6333C45.7333 56.6333 45.9667 56.7 46.1333 56.8333C46.3 56.9667 46.3667 57.1667 46.3667 57.4333C46.3667 57.6667 46.3 57.8667 46.1667 57.9667C46.0333 58.0667 45.8667 58.1667 45.6333 58.1667L46.4333 59.4H45.9667L45.2 58.2H44.7333V59.4H44.3V56.6333H45.4ZM43.4333 58.8333C43.5333 59.0667 43.6667 59.3 43.8333 59.4667C44 59.6333 44.2333 59.8 44.4667 59.9C44.7 60 44.9667 60.0667 45.2333 60.0667C45.5 60.0667 45.7667 60 46 59.9C46.2333 59.8 46.4333 59.6667 46.6333 59.4667C46.8 59.3 46.9333 59.0667 47.0333 58.8333C47.1333 58.6 47.1667 58.3 47.1667 58.0333C47.1667 57.7333 47.1333 57.5 47.0333 57.2333C46.9333 57 46.8 56.7667 46.6333 56.6C46.4667 56.4333 46.2667 56.2667 46 56.1667C45.7667 56.0667 45.5 56 45.2333 56C44.9667 56 44.7 56.0667 44.4667 56.1667C44.2333 56.2667 44.0333 56.4 43.8333 56.6C43.6667 56.7667 43.5333 57 43.4333 57.2333C43.3333 57.4667 43.3 57.7333 43.3 58.0333C43.3 58.3333 43.3333 58.6 43.4333 58.8333ZM43.0333 57.1C43.1667 56.8 43.3333 56.5667 43.5667 56.3333C43.8 56.1333 44.0333 55.9667 44.3333 55.8333C44.6333 55.7 44.9333 55.6667 45.2667 55.6667C45.6 55.6667 45.9 55.7333 46.2 55.8333C46.5 55.9667 46.7333 56.1333 46.9667 56.3333C47.1667 56.5333 47.3667 56.8 47.4667 57.1C47.6 57.4 47.6667 57.7 47.6667 58.0333C47.6667 58.3667 47.6 58.7 47.4667 59C47.3333 59.3 47.1667 59.5333 46.9667 59.7667C46.7667 59.9667 46.5 60.1333 46.2 60.2667C45.9 60.4 45.6 60.4333 45.2667 60.4333C44.9333 60.4333 44.6333 60.3667 44.3333 60.2667C44.0333 60.1333 43.8 59.9667 43.5667 59.7667C43.3333 59.5667 43.1667 59.3 43.0333 59C42.9 58.7 42.8333 58.4 42.8333 58.0333C42.8667 57.7 42.9 57.3667 43.0333 57.1Z" fill="white"/>
<path d="M24.0333 46.4667L23.9667 23.0333C17.3 17.3333 9.06667 13.3667 0 11.8667V26.5333C10.7667 29.1 19.6667 36.5667 24.0333 46.4667Z" fill="white"/>
<path d="M27.1 40.8333V40.9C30.0333 32.9333 35 26.3333 41.3333 20.9333L41.8 20.5333V0H27.1V40.8333Z" fill="white"/>
<path d="M67.3333 12.0333C44.2667 16.1333 26.7667 36.1 26.7667 60.3667H41C41 44.0667 52.2333 30.6 67.3333 26.7333V12.0333Z" fill="white"/>
</svg>
