<svg width="200" height="52" viewBox="0 0 200 52" fill="none" xmlns="http://www.w3.org/2000/svg">
<path d="M42.6849 49.3699V2.0274C48.6575 2.41096 53.589 5.20548 57.6438 9.53424C62.0274 14.1918 64.7671 19.9452 67.1233 25.8082C71.1233 14.9041 78.6301 3.12329 91.3425 2.0274V18.4658C93.0959 13.3151 95.7808 8.65753 100.11 5.26027C104.767 1.58904 110.521 0 116.384 0C126.959 0 137.589 7.23287 139.452 18.0274H127.233C125.151 13.2055 120.712 11.2877 115.616 11.2877C107.562 11.2877 101.37 17.2603 101.37 25.4247C101.37 33.863 106.959 40.1096 115.562 40.1096C119.178 40.1096 122.63 39.0137 125.26 36.4383C126.74 35.0137 127.562 33.2055 128.384 31.2877H114.356V20H140.384V2.0274H164.767V13.4247H152V20H164.767V31.2877H152V37.9726H164.767V49.3699H140.384V31.2877C139.562 35.2877 137.863 38.7397 135.288 41.9178C130.411 48.0548 123.233 51.1781 115.397 51.1781C109.479 51.1781 103.671 49.6438 99.1233 45.7534C95.0685 42.3562 92.6575 37.863 91.3973 32.8219V49.3151H80V23.6712C74.5206 30.9589 72.6575 40.3836 72.4932 49.3151H61.7534C61.5343 40.274 59.1781 31.2329 54.1918 23.6712V49.3151H42.6849V49.3699Z" fill="white"/>
<path d="M188.603 2.02739H200V49.3699H189.699C188.164 41.5342 184.493 31.5616 178.027 26.5753V49.3699H166.575V1.9726C171.781 3.01369 178.521 8.38356 182.301 12C184.712 14.3562 187.069 16.9315 188.548 20V2.02739H188.603Z" fill="white"/>
<path d="M0 49.3699L0.328766 48.2192L2.30137 41.5342C3.9452 36.0548 6.08219 30.6301 8.43836 25.4247C14.411 12.1644 24.3836 1.80822 39.726 1.80822C40.0548 1.80822 40.4384 1.80822 40.7671 1.80822V49.3699H29.2603V37.863H14.6301L14.3014 38.9041L13.589 40.9863L12.6575 44.3288L11.7808 48L11.3973 49.4247H0V49.3699ZM19.8356 26.5753H29.2603V15.7808C24.274 18.0822 22.1918 21.8082 19.8356 26.5753Z" fill="white"/>
</svg>
