<svg width="200" height="23" viewBox="0 0 200 23" fill="none" xmlns="http://www.w3.org/2000/svg">
<path d="M1.75342 16.0548V10.6301H5.04109C5.86301 10.6301 6.79452 10.6301 7.39726 11.1233C8.10959 11.6164 8.54794 12.5479 8.54794 13.3699C8.54794 14.1918 8.21918 14.9041 7.61644 15.3973C7.0137 15.8904 6.08219 16 5.26027 16L1.75342 16.0548ZM1.75342 9.26027V4.49315H5.04109C5.75342 4.49315 6.35616 4.49315 6.9589 4.82192C7.67123 5.20548 8.10959 5.9726 8.10959 6.73973C8.10959 7.45206 7.72602 8.27397 7.17808 8.65754C6.46575 9.26028 5.42465 9.26027 4.49315 9.26027H1.75342ZM5.31506 17.4795C6.63013 17.4795 7.78082 17.3699 8.76712 16.5479C9.80822 15.726 10.1918 14.6849 10.1918 13.4794C10.1918 11.6164 8.9863 10.1918 7.23287 9.80822C8.76712 9.42465 9.80822 8.16438 9.80822 6.63013C9.80822 5.42465 9.20548 4.38356 8.27397 3.78082C7.23287 3.17808 6.41095 3.06849 5.31506 3.06849H0V17.4795H5.31506Z" fill="white"/>
<path d="M13.589 12.0548C13.589 11.1233 13.6986 10.137 14.0822 9.36986C14.5753 8.43836 15.5068 7.83562 16.5479 7.83562C17.4794 7.83562 18.411 8.32877 18.9041 9.0411C19.3973 9.97261 19.5068 10.9589 19.5068 12C19.5068 12.9315 19.3973 13.863 19.0137 14.7397C18.5205 15.6712 17.6986 16.274 16.5479 16.274C15.5068 16.274 14.6301 15.7808 14.1918 14.9589C13.6986 14.0822 13.589 12.9863 13.589 12.0548ZM11.7808 12.0548C11.7808 14.7945 13.2055 17.6986 16.3836 17.6986C19.6712 17.6986 21.3699 15.0137 21.3699 12.0548C21.3699 9.31507 19.8356 6.52055 16.6575 6.52055C13.4795 6.52055 11.7808 9.0959 11.7808 12.0548Z" fill="white"/>
<path d="M24.7671 12.0548C24.7671 11.1233 24.8767 10.137 25.2603 9.36986C25.6438 8.43836 26.6849 7.83562 27.726 7.83562C28.6575 7.83562 29.4795 8.32877 29.9726 9.0411C30.5753 9.97261 30.6849 10.9589 30.6849 12C30.6849 12.9315 30.5753 13.863 30.1918 14.7397C29.6986 15.6712 28.7671 16.274 27.726 16.274C26.6849 16.274 25.8082 15.7808 25.3699 14.9589C24.8219 14.0822 24.7671 12.9863 24.7671 12.0548ZM22.9041 12.0548C22.9041 14.7945 24.3288 17.6986 27.5069 17.6986C30.7945 17.6986 32.4384 15.0137 32.4384 12.0548C32.4384 9.31507 30.9041 6.52055 27.8356 6.52055C24.6575 6.52055 22.9041 9.0959 22.9041 12.0548Z" fill="white"/>
<path d="M41.3151 7.72602L35.5068 16.1096H41.3151V17.4795H33.4247V16.1096L39.1781 8.05479H33.9726V6.84932H41.3151V7.72602Z" fill="white"/>
<path d="M51.9452 0H50.6301V22.1918H51.9452V0Z" fill="white"/>
<path d="M67.8904 11.8356H63.5069L65.6438 4.9863L67.8904 11.8356ZM66.7945 3.06849H64.8767L60.1644 17.4795H61.6986L63.0137 13.2603H68.3288L69.7534 17.4795H71.5069L66.7945 3.06849Z" fill="white"/>
<path d="M83.6164 11.0137C83.6164 9.36986 84.8219 7.72602 86.6849 7.72602C88.5479 7.72602 89.6438 9.26027 89.5342 11.0137H83.6164ZM89.6986 14.3014C89.2055 15.5068 88.1644 16.3288 86.8493 16.3288C85.6986 16.3288 84.4932 15.6164 84 14.5753C83.6164 13.863 83.6164 13.0411 83.6164 12.2192H91.3973C91.5069 9.26028 90.0822 6.46576 86.7945 6.46576C83.6164 6.46576 81.863 9.15068 81.863 12.1096C81.863 15.0685 83.5068 17.6438 86.6849 17.6438C88.7123 17.6438 90.5754 16.4384 91.2877 14.4658L89.6986 14.3014Z" fill="white"/>
<path d="M95.1781 8.54794H95.2877C95.7808 7.39726 97.1507 6.52055 98.5753 6.52055C99.8904 6.52055 100.932 7.0137 101.644 8.16438C102.137 9.09589 102.027 10.5205 102.027 11.5616V17.4795H100.384V10.8493C100.384 10.2466 100.493 9.53425 100.164 8.93151C99.7808 8.32877 99.0137 8 98.3014 8C97.3699 8 96.6575 8.38357 96.0548 9.0411C95.4521 9.86302 95.2329 10.9041 95.2329 11.8904V17.5342H93.5891V6.90411H95.1233V8.54794" fill="white"/>
<path d="M193.151 8.54794C193.644 7.39726 195.014 6.52055 196.438 6.52055C197.753 6.52055 198.795 7.0137 199.507 8.16438C200 9.09589 200 10.5205 200 11.5616V17.4795H198.356V10.8493C198.356 10.2466 198.356 9.53425 198.027 8.93151C197.644 8.32877 196.877 8 196.164 8C195.342 8 194.521 8.38357 194.027 9.0411C193.315 9.86302 193.096 10.9041 193.096 11.8904V17.5342H191.452V6.90411H193.096V8.54794" fill="white"/>
<path d="M112.767 0H111.452V22.1918H112.767V0Z" fill="white"/>
<path d="M131.288 17.4795V10.5205H124.658V17.4795H123.014V3.06849H124.658V9.15068H131.288V3.06849H133.041V17.4795H131.288Z" fill="white"/>
<path d="M142.521 12.7671C142.521 14.6301 141.205 16.3288 139.233 16.3288C137.918 16.3288 136.877 15.8356 136.877 14.4658C136.877 12.3288 139.233 12 141.151 12H142.466V12.7671H142.521ZM141.205 10.7945C139.89 10.7945 138.356 10.9041 137.205 11.3973C136.055 11.8904 135.288 13.1507 135.288 14.3562C135.288 16.4931 136.932 17.6438 138.959 17.6438C140.603 17.6438 141.808 16.9315 142.521 15.3973L142.74 17.4247H144.384C144.164 16.7123 144.055 15.8904 144.055 15.1781V10.9589C144.055 9.80822 144.055 8.38356 143.233 7.50685C142.411 6.57534 141.205 6.46576 140.055 6.46576C138.137 6.46576 135.89 7.17808 135.562 9.42466L136.986 9.64383C137.315 8.21917 138.63 7.78082 139.836 7.78082C141.699 7.78082 142.521 8.38356 142.521 10.3562V10.7397H141.205" fill="white"/>
<path d="M148.493 6.84932V8.71233C148.986 7.56165 150.247 6.57535 151.671 6.57535C153.205 6.57535 154.411 7.72603 154.63 8.93151C155.233 7.61645 156.493 6.57535 158.082 6.57535C159.233 6.57535 160.219 7.17809 160.767 8.1096C161.26 9.0411 161.26 10.137 161.26 11.1781V17.5342H159.616V11.1781C159.616 10.4658 159.616 9.64384 159.288 9.0411C158.959 8.32877 158.247 7.89041 157.534 7.89041C156.712 7.89041 155.89 8.38356 155.507 9.09589C154.904 9.91781 154.904 10.7397 154.904 11.7808V17.5342H153.26V10.7945C153.26 10.1918 153.26 9.47946 152.932 8.93151C152.548 8.32877 151.781 7.89041 151.069 7.89041C150.356 7.89041 149.644 8.38357 149.151 8.93151C148.658 9.64384 148.548 10.5753 148.548 11.3973V17.5342H146.904V6.90411H148.493" fill="white"/>
<path d="M164.219 6.84932H165.863V17.4795H164.219V6.84932ZM164.11 3.06849H165.973V4.93151H164.11V3.06849Z" fill="white"/>
<path d="M170.74 3.06849H169.205V17.4795H170.74V3.06849Z" fill="white"/>
<path d="M74.6301 3.06849H73.0959V17.4795H74.6301V3.06849Z" fill="white"/>
<path d="M79.5616 3.06849H78.0274V17.4795H79.5616V3.06849Z" fill="white"/>
<path d="M179.014 17.4795L177.479 17.6986C175.123 17.6986 174.411 16.274 174.411 14.2466V8.1096H172.548V6.79452H174.411V4.1096L176.055 4.00001V6.73973H178.411V8.0548H176.055V14.411C176.055 15.6164 176.438 16.3288 177.808 16.3288L179.014 16.2192V17.4795Z" fill="white"/>
<path d="M181.699 12.0548C181.699 11.1233 181.808 10.137 182.192 9.36986C182.575 8.43836 183.507 7.83562 184.548 7.83562C185.589 7.83562 186.411 8.32877 186.904 9.0411C187.507 9.97261 187.616 10.9589 187.616 12C187.616 12.9315 187.507 13.863 187.123 14.7397C186.63 15.6712 185.699 16.274 184.548 16.274C183.616 16.274 182.685 15.7808 182.301 14.9589C181.808 14.0822 181.699 12.9863 181.699 12.0548ZM179.836 12.0548C179.836 14.7945 181.26 17.6986 184.438 17.6986C187.726 17.6986 189.37 15.0137 189.37 12.0548C189.37 9.31507 187.836 6.52055 184.767 6.52055C181.479 6.52055 179.836 9.0959 179.836 12.0548Z" fill="white"/>
</svg>
