<svg width="200" height="36" viewBox="0 0 200 36" fill="none" xmlns="http://www.w3.org/2000/svg">
<path d="M61.027 19.4595L60.7567 12.8108H41.2432V13.6216H44.7568V33.7838H41.2432V34.5946H52.7027V33.7838H49.1892V23.7838C52.973 23.6757 54.2162 24.4865 54.5405 28.0541H55.5135V18.973H54.5946C54.4324 22.4324 52.5946 22.973 49.2432 22.973V13.6216H53.0811C54.5405 13.6216 55.9459 13.7297 56.7027 14.0541C59.027 15.027 59.5676 17.3514 60.0541 19.4595H61.027ZM72.2703 33.6216C71.8378 33.6216 71.4054 33.4054 71.4054 33.027V24.3243C71.4054 23.3514 71.0811 22.8108 70.0541 22.3243C68.7027 21.6757 67.0811 21.4595 65.5676 21.4595C63.4054 21.4595 59.9459 22.3243 59.9459 24.8108C59.9459 25.8378 60.8108 26.3243 61.7838 26.3243C62.5946 26.3243 63.4594 25.7297 63.4594 24.8649C63.4594 24.2703 63.1892 23.5676 62.973 23.2973C62.4865 22.7027 64.1081 22.054 65.4595 22.054C66.0541 22.054 67.7838 22.3784 67.7838 23.1892V27.2973C64.6486 27.1351 58.973 27.9459 58.973 31.8378C58.973 33.9459 60.5405 34.973 62.6486 34.973C64.6486 34.973 66.4865 34.1081 67.7838 32.6486C68 34.1081 68.973 34.973 70.5405 34.973C72 34.973 72.973 34.2703 73.8919 33.2432L73.4594 32.8108C73.2432 33.1892 72.7027 33.6216 72.2703 33.6216ZM67.8378 29.8919C67.8378 30.4865 67.7838 31.0811 67.6216 31.5676C67.1892 32.5946 66.2703 33.4595 65.027 33.4595C63.4054 33.4595 62.7568 32.3784 62.7568 30.973C62.7568 28.3243 65.6757 28.0541 67.8378 28.0541V29.8919ZM90.4865 27.7297C90.4865 24.4865 90.8649 21.4595 86.2162 21.4595C83.6757 21.4595 82.1081 22.5405 80.973 24.5946H80.8649V21.5135C78.7027 21.5676 76.5405 21.7297 74.7568 21.6757V22.4865H77.1351V33.7838H74.7568V34.5946H83.0811V33.7838H80.8649V29.4595C80.8649 27.9459 80.8649 26.4324 81.3513 25.3513C81.8378 24.1622 83.2432 22.6486 84.7568 22.6486C87.0811 22.6486 86.7568 24.8649 86.7568 27.8919V33.7838H84.5405V34.5946H92.7027V33.7838H90.4865V27.7297ZM109.351 27.7297C109.351 24.4865 109.73 21.4595 105.081 21.4595C102.541 21.4595 100.973 22.5405 99.8378 24.5946H99.7297V21.5135C97.5676 21.5676 95.4054 21.7297 93.6216 21.6757V22.4865H96V33.7838H93.6216V34.5946H101.946V33.7838H99.7297V29.4595C99.7297 27.9459 99.7297 26.4324 100.216 25.3513C100.703 24.1622 102.108 22.6486 103.622 22.6486C105.946 22.6486 105.622 24.8649 105.622 27.8919V33.7838H103.405V34.5946H111.568V33.7838H109.351V27.7297ZM116.27 17.5135C117.459 17.5135 118.378 16.6486 118.378 15.5135C118.378 14.5405 117.297 13.7838 116.27 13.7838C115.297 13.7838 114.378 14.6486 114.378 15.5135C114.378 16.4865 115.135 17.5135 116.27 17.5135ZM118.432 21.5676C116.27 21.6216 114.162 21.7838 112.054 21.7297V22.5405H114.595V33.7838H112.054V34.5946H121.081V33.7838H118.432V21.5676ZM129.081 34.4324C126.108 34.4324 125.946 32.2703 125.946 30V27.4054H134.162C134.703 27.4054 135.027 27.5135 135.027 26.8108C135.027 23.6216 132 21.5135 128.757 21.5135C124.919 21.5135 121.73 24.7568 121.73 28.3243C121.73 31.6757 124.541 35.0811 128.378 35.0811C131.784 35.0811 134.216 33.6757 135.135 30.4865H134.27C133.568 32.7568 131.622 34.4324 129.081 34.4324ZM128.541 22.1622C131.676 22.1622 131.081 24.4324 131.081 26.5946H125.946C125.946 24.4865 125.622 22.1622 128.541 22.1622ZM150.108 27.6757L145.189 12.7568H136.108V13.5676H139.622V33.7838H136.108V34.5946H144.162V33.7838H140.757V14.1622H140.811L147.838 34.5405H149.027L156.054 14.1622H156.162V33.7838H152.703V34.5946H164.162V33.7838H160.649V13.6216H164.162V12.8108H155.243L150.108 27.6757ZM178.27 33.6216C177.838 33.6216 177.405 33.4054 177.405 33.027V24.3243C177.405 23.3514 177.081 22.8108 176.108 22.3243C174.703 21.6757 173.081 21.4595 171.622 21.4595C169.459 21.4595 166 22.3243 166 24.8108C166 25.8378 166.865 26.3243 167.838 26.3243C168.649 26.3243 169.514 25.7297 169.514 24.8649C169.514 24.2703 169.243 23.5676 169.027 23.2973C168.486 22.7027 170.162 22.054 171.459 22.054C172.054 22.054 173.784 22.3784 173.784 23.1892V27.2973C170.649 27.1351 164.973 27.9459 164.973 31.8378C164.973 33.9459 166.541 34.973 168.649 34.973C170.649 34.973 172.486 34.1081 173.784 32.6486C174 34.1081 174.973 34.973 176.541 34.973C178 34.973 178.973 34.2703 179.892 33.2432L179.459 32.8108C179.189 33.1892 178.703 33.6216 178.27 33.6216ZM173.838 29.8919C173.838 30.4865 173.784 31.0811 173.622 31.5676C173.189 32.5946 172.27 33.4595 171.027 33.4595C169.405 33.4595 168.757 32.3784 168.757 30.973C168.757 28.3243 171.676 28.0541 173.838 28.0541V29.8919ZM187.892 34.4324C184.919 34.4324 184.757 32.2703 184.757 30V27.4054H192.973C193.514 27.4054 193.892 27.5135 193.892 26.8108C193.892 23.6216 190.865 21.5135 187.568 21.5135C183.73 21.5135 180.595 24.7568 180.595 28.3243C180.595 31.6757 183.351 35.0811 187.189 35.0811C190.595 35.0811 193.081 33.6757 193.946 30.4865H193.081C192.378 32.7568 190.432 34.4324 187.892 34.4324ZM187.351 22.1622C190.486 22.1622 189.838 24.4324 189.838 26.5946H184.703C184.757 24.4865 184.432 22.1622 187.351 22.1622ZM197.892 33.2432C198.378 33.1892 198.595 32.7027 198.595 32.3243C198.595 32.1081 198.486 31.8919 198.324 31.7297C198.108 31.4595 197.838 31.4595 197.568 31.4595H196.757V34.1622H197.243V33.2973H197.459C197.73 33.2973 197.838 33.4054 198.054 33.8378L198.27 34.1622H198.757L198.486 33.7838C198.162 33.3514 198 33.2973 197.892 33.2432ZM197.622 32.8649H197.243V31.9459H197.622C197.838 31.9459 198.162 31.9459 198.162 32.3784C198.162 32.8649 197.784 32.8649 197.622 32.8649ZM197.73 30.5405C196.486 30.5405 195.351 31.4054 195.351 32.973C195.351 34.1081 196.486 35.1351 197.73 35.1351C198.919 35.1351 200 34.1622 200 32.973C200 31.4054 198.919 30.5405 197.73 30.5405ZM197.73 34.7027C196.703 34.7027 195.838 34 195.838 33.027C195.838 31.6757 196.703 31.027 197.73 31.027C198.757 31.027 199.514 31.6757 199.514 33.027C199.514 34 198.757 34.7027 197.73 34.7027Z" fill="white"/>
<path d="M32.6487 34.2162H33.6757V0H0.108109V6.86486C0.108109 2.64865 2.91892 4 3.08108 4C3.08108 4 3.83784 3.02703 4.81081 3.67568C5.78379 1.94595 7.18919 0.972975 9.18919 0.972975C11.1351 0.972975 12.7027 2.32432 12.973 4.27027C13.2432 4 15.2973 3.4054 15.8919 5.51351C18.0541 5.4054 20.8108 6.37838 21.5135 8.59459C22.8108 7.24324 24.4324 7.08108 25.4595 7.08108C27.0811 7.08108 29.9459 8.21621 31.027 10.9189C32.2703 14.0541 31.4054 16.5946 30.2703 17.9459C29.2973 19.0811 28.1081 19.7297 27.3514 19.8378C27.3514 19.8378 29.027 21.5676 27.4595 23.1892C27.4595 23.1892 28.973 24.1081 29.8378 25.6216C30.7568 27.0811 31.027 28.1081 31.2432 29.5676C32.8649 30.2703 33.2973 31.8378 32.6487 34.2162Z" fill="white"/>
<path d="M0.486481 22.3784L12.5405 21.2973L18.4865 11.8378L23.5135 22.5405H24.7568L18.8108 10.1622L10.3784 13.2973V11.7838H7.35134V14.3243L4.48648 15.4054L0.486481 22.3784Z" fill="white"/>
<path d="M0 23.8378C8.59459 22.1622 16.6486 25.8378 16.6486 25.8378L16.5946 22.2703L16.6486 22.3784L19.027 22.8649V27.0811C19.027 27.0811 17.5135 26.2162 17.4595 26.3243C16.3784 28.4324 12.8649 28.0541 10.0541 27.946C4.75676 27.7297 1.45946 28.7027 5.08108 34.3243C5.08108 34.3243 5.02703 34.3243 5.02703 34.2703H0V23.8378Z" fill="white"/>
<path d="M25.5676 34.3243L12.9189 34.3784C9.62162 31.5135 9.24325 30 15.4054 29.3513C20.8108 28.7567 19.9459 28.1622 20.2162 27.946C20.4324 27.6757 24.5405 31.5135 25.5676 34.3243Z" fill="white"/>
<path d="M15.8919 17.6216L17.4595 17.9459V20.2703L15.8919 19.9459V17.6216Z" fill="white"/>
</svg>
